<svg viewBox="0 0 240 240" xmlns="http://www.w3.org/2000/svg">
  <!-- Define color variables from the theme -->
  <defs>
    <linearGradient id="bgGradient" x1="0%" y1="0%" x2="100%" y2="100%">
      <stop offset="0%" stop-color="#1B1C17" />
      <stop offset="100%" stop-color="#46483C" />
    </linearGradient>
    <linearGradient id="accentGradient" x1="0%" y1="0%" x2="100%" y2="100%">
      <stop offset="0%" stop-color="#B7D167" />
      <stop offset="100%" stop-color="#D3EE80" />
    </linearGradient>
    <linearGradient id="secondaryGradient" x1="0%" y1="100%" x2="100%" y2="0%">
      <stop offset="0%" stop-color="#A1D0C6" />
      <stop offset="100%" stop-color="#BCECE2" />
    </linearGradient>
  </defs>

  <!-- Background -->
  <rect x="20" y="20" width="200" height="200" rx="40" fill="url(#bgGradient)" />

  <!-- Window frame representation -->
  <rect x="40" y="50" width="160" height="140" rx="12" fill="#204E47" stroke="#909284" stroke-width="1" />

  <!-- Window header bar -->
  <rect x="40" y="50" width="160" height="24" rx="12" ry="12" fill="#3C4D00" stroke="#909284" stroke-width="1" />

  <!-- Window control buttons -->
  <circle cx="55" cy="62" r="5" fill="#FFB4AB" />
  <circle cx="75" cy="62" r="5" fill="#C4CAA9" />
  <circle cx="95" cy="62" r="5" fill="#B7D167" />

  <!-- UI Component representations -->
  <rect x="60" y="90" width="120" height="30" rx="6" fill="#434930" />
  <rect x="70" y="100" width="100" height="10" rx="2" fill="#C7C8B8" opacity="0.7" />

  <rect x="60" y="130" width="120" height="30" rx="6" fill="#3C4D00" />
  <rect x="70" y="140" width="80" height="10" rx="2" fill="#D3EE80" opacity="0.8" />

  <!-- Decorative circuit-like lines -->
  <path d="M120 21 L120 40 L160 40 L160 60" fill="none" stroke="url(#secondaryGradient)" stroke-width="2" stroke-linecap="round" stroke-linejoin="round" />
  <path d="M80 200 L80 219 L120 219" fill="none" stroke="url(#secondaryGradient)" stroke-width="2" stroke-linecap="round" stroke-linejoin="round" />

  <!-- Center compose logo stylized -->
  <circle cx="120" cy="180" r="15" fill="none" stroke="#B7D167" stroke-width="3" />
  <circle cx="120" cy="180" r="8" fill="#3C4D00" />
  <circle cx="120" cy="180" r="3" fill="#D3EE80" />
</svg>